<svg width="140" height="140" viewBox="0 0 140 140" fill="none" xmlns="http://www.w3.org/2000/svg">
<path d="M0 19.4447V119.444H138.889V19.4447H0ZM5.55516 24.9999H133.334V31.9441C132.249 32.888 83.5395 75.3802 78.9928 79.3406L78.7325 79.6009C75.1297 82.7367 71.4405 83.3328 69.4444 83.3328C67.4592 83.3328 63.7591 82.7367 60.1562 79.6009C59.1259 78.6997 51.7038 72.287 46.3542 67.6211C30.4795 53.7764 6.36891 32.6605 5.55516 31.9441V24.9999ZM5.55516 39.3225C10.3731 43.5225 27.463 58.3986 42.0142 71.0938L5.55516 99.913V39.3225ZM133.334 39.3225V99.913L96.8745 71.0938C111.426 58.3986 128.516 43.5225 133.334 39.3225ZM46.2678 74.8267C49.642 77.7667 55.7397 83.0944 56.5108 83.767L56.5972 83.8545C61.2959 87.8905 66.2867 88.8891 69.4444 88.8891C72.6239 88.8891 77.6584 87.8795 82.378 83.767C83.16 83.0944 89.3014 77.7995 92.7084 74.8267L133.334 106.945V113.889H5.55516V106.945L46.2678 74.8267Z" fill="white"/>
</svg>
