<svg width="168" height="168" viewBox="0 0 168 168" fill="none" xmlns="http://www.w3.org/2000/svg">
<path d="M23.625 15.75C19.2876 15.75 15.75 19.2876 15.75 23.625V144.375C15.75 148.712 19.2876 152.25 23.625 152.25H144.375C148.712 152.25 152.25 148.712 152.25 144.375V23.625C152.25 19.2876 148.712 15.75 144.375 15.75H23.625ZM23.625 21H144.375C145.821 21 147 22.1792 147 23.625V144.375C147 145.821 145.821 147 144.375 147H23.625C22.1792 147 21 145.821 21 144.375V23.625C21 22.1792 22.1792 21 23.625 21ZM36.75 31.5C33.8584 31.5 31.5 33.8584 31.5 36.75V57.75C31.5 60.6416 33.8584 63 36.75 63H57.75C60.6416 63 63 60.6416 63 57.75V36.75C63 33.8584 60.6416 31.5 57.75 31.5H36.75ZM70.875 31.5C69.4189 31.5 68.25 32.6792 68.25 34.125V44.625C68.25 46.0708 69.4189 47.25 70.875 47.25H78.75V55.125C78.75 56.5708 79.9189 57.75 81.375 57.75C82.8311 57.75 84 56.5708 84 55.125V47.25H94.5V57.75H86.625C85.1689 57.75 84 58.9292 84 60.375V68.25H70.875C69.4189 68.25 68.25 69.4292 68.25 70.875V84H63V76.125C63 74.6792 61.8311 73.5 60.375 73.5H49.875C48.4189 73.5 47.25 74.6792 47.25 76.125V86.625C47.25 88.0708 48.4189 89.25 49.875 89.25H68.25V97.125C68.25 98.5708 69.4189 99.75 70.875 99.75H84V105H76.125C74.6689 105 73.5 106.179 73.5 107.625V118.125C73.5 119.571 74.6689 120.75 76.125 120.75H86.625C88.0811 120.75 89.25 119.571 89.25 118.125V97.125C89.25 95.6792 88.0811 94.5 86.625 94.5H73.5V89.25H94.5V118.125C94.5 119.571 95.6689 120.75 97.125 120.75H107.625C109.081 120.75 110.25 119.571 110.25 118.125V110.25H120.75V133.875C120.75 135.321 121.919 136.5 123.375 136.5H133.875C135.331 136.5 136.5 135.321 136.5 133.875V123.375C136.5 121.929 135.331 120.75 133.875 120.75H126V107.625C126 106.179 124.831 105 123.375 105H110.25V99.75H133.875C135.331 99.75 136.5 98.5708 136.5 97.125V70.875C136.5 69.4292 135.331 68.25 133.875 68.25H118.125C116.669 68.25 115.5 69.4292 115.5 70.875C115.5 72.3208 116.669 73.5 118.125 73.5H131.25V84H123.375C121.919 84 120.75 85.1792 120.75 86.625V94.5H107.625C106.169 94.5 105 95.6792 105 97.125V105H99.75V89.25H107.625C109.081 89.25 110.25 88.0708 110.25 86.625V76.125C110.25 74.6792 109.081 73.5 107.625 73.5H97.125C95.6689 73.5 94.5 74.6792 94.5 76.125V84H73.5V73.5H86.625C88.0811 73.5 89.25 72.3208 89.25 70.875V63H97.125C98.5811 63 99.75 61.8208 99.75 60.375V44.625C99.75 43.1792 98.5811 42 97.125 42H84V34.125C84 32.6792 82.8311 31.5 81.375 31.5H70.875ZM91.875 31.5C90.4189 31.5 89.25 32.6792 89.25 34.125C89.25 35.5708 90.4189 36.75 91.875 36.75H97.125C98.5811 36.75 99.75 35.5708 99.75 34.125C99.75 32.6792 98.5811 31.5 97.125 31.5H91.875ZM110.25 31.5C107.358 31.5 105 33.8584 105 36.75V57.75C105 60.6416 107.358 63 110.25 63H131.25C134.142 63 136.5 60.6416 136.5 57.75V36.75C136.5 33.8584 134.142 31.5 131.25 31.5H110.25ZM36.75 36.75H57.75V57.75H36.75V36.75ZM73.5 36.75H78.75V42H73.5V36.75ZM110.25 36.75H131.25V57.75H110.25V36.75ZM44.625 42C43.1689 42 42 43.1792 42 44.625V49.875C42 51.3208 43.1689 52.5 44.625 52.5H49.875C51.3311 52.5 52.5 51.3208 52.5 49.875V44.625C52.5 43.1792 51.3311 42 49.875 42H44.625ZM118.125 42C116.669 42 115.5 43.1792 115.5 44.625V49.875C115.5 51.3208 116.669 52.5 118.125 52.5H123.375C124.831 52.5 126 51.3208 126 49.875V44.625C126 43.1792 124.831 42 123.375 42H118.125ZM70.875 52.5C69.4189 52.5 68.25 53.6792 68.25 55.125V60.375C68.25 61.8208 69.4189 63 70.875 63C72.3311 63 73.5 61.8208 73.5 60.375V55.125C73.5 53.6792 72.3311 52.5 70.875 52.5ZM34.125 68.25C32.6689 68.25 31.5 69.4292 31.5 70.875C31.5 72.3208 32.6689 73.5 34.125 73.5H39.375C40.8311 73.5 42 72.3208 42 70.875C42 69.4292 40.8311 68.25 39.375 68.25H34.125ZM52.5 78.75H57.75V84H52.5V78.75ZM99.75 78.75H105V84H99.75V78.75ZM34.125 81.375C32.6689 81.375 31.5 82.5542 31.5 84C31.5 85.4458 32.6689 86.625 34.125 86.625H39.375C40.8311 86.625 42 85.4458 42 84C42 82.5542 40.8311 81.375 39.375 81.375H34.125ZM126 89.25H131.25V94.5H126V89.25ZM34.125 94.5C32.6689 94.5 31.5 95.6792 31.5 97.125C31.5 98.5708 32.6689 99.75 34.125 99.75H39.375C40.8311 99.75 42 98.5708 42 97.125C42 95.6792 40.8311 94.5 39.375 94.5H34.125ZM49.875 94.5C48.4189 94.5 47.25 95.6792 47.25 97.125C47.25 98.5708 48.4189 99.75 49.875 99.75H60.375C61.8311 99.75 63 98.5708 63 97.125C63 95.6792 61.8311 94.5 60.375 94.5H49.875ZM36.75 105C33.8584 105 31.5 107.358 31.5 110.25V131.25C31.5 134.142 33.8584 136.5 36.75 136.5H57.75C60.6416 136.5 63 134.142 63 131.25V110.25C63 107.358 60.6416 105 57.75 105H36.75ZM133.875 105C132.419 105 131.25 106.179 131.25 107.625V112.875C131.25 114.321 132.419 115.5 133.875 115.5C135.331 115.5 136.5 114.321 136.5 112.875V107.625C136.5 106.179 135.331 105 133.875 105ZM36.75 110.25H57.75V131.25H36.75V110.25ZM78.75 110.25H84V115.5H78.75V110.25ZM99.75 110.25H105V115.5H99.75V110.25ZM44.625 115.5C43.1689 115.5 42 116.679 42 118.125V123.375C42 124.821 43.1689 126 44.625 126H49.875C51.3311 126 52.5 124.821 52.5 123.375V118.125C52.5 116.679 51.3311 115.5 49.875 115.5H44.625ZM70.875 126C69.4189 126 68.25 127.179 68.25 128.625V133.875C68.25 135.321 69.4189 136.5 70.875 136.5C72.3311 136.5 73.5 135.321 73.5 133.875V128.625C73.5 127.179 72.3311 126 70.875 126ZM84 126C82.5439 126 81.375 127.179 81.375 128.625V133.875C81.375 135.321 82.5439 136.5 84 136.5C85.4561 136.5 86.625 135.321 86.625 133.875V128.625C86.625 127.179 85.4561 126 84 126ZM97.125 126C95.6689 126 94.5 127.179 94.5 128.625V133.875C94.5 135.321 95.6689 136.5 97.125 136.5C98.5811 136.5 99.75 135.321 99.75 133.875V128.625C99.75 127.179 98.5811 126 97.125 126ZM110.25 126C108.794 126 107.625 127.179 107.625 128.625V133.875C107.625 135.321 108.794 136.5 110.25 136.5C111.706 136.5 112.875 135.321 112.875 133.875V128.625C112.875 127.179 111.706 126 110.25 126ZM126 126H131.25V131.25H126V126Z" fill="white"/>
</svg>
